<svg viewBox="0 0 213.48600000000002 209.56082191780823" xmlns="http://www.w3.org/2000/svg" style="max-height: 500px" width="213.48600000000002" height="209.56082191780823"><defs><style>.cls-1{fill:#0c9347;}.cls-2{fill:#4f5253;}.cls-3{fill:#fff;}.cls-4{fill:#d84b28;}</style></defs><g data-name="Layer 2" id="Layer_2"><g data-name="Layer 1" id="Layer_1-2"><path d="M264.7,91.1c-4.49-1.83-6.54-3.6-6.54-6.21,0-1.77,1.72-3.88,4.88-3.88s7.26,2.78,7.7,3a1.45,1.45,0,0,0,1.94-.66l2.11-3.16a1.37,1.37,0,0,0-.33-1.83,19.53,19.53,0,0,0-11.09-3.71c-8.81,0-12.47,5.7-12.47,10.64,0,6.53,5.21,9.86,10.43,12,4.65,1.88,7,3.82,7,6.65,0,2.38-2.16,4.27-5,4.27-3.61,0-8.09-3.28-8.37-3.44a1.28,1.28,0,0,0-1.88.39l-2,3.43c-.5.89-.22,1.17.28,1.67a17.85,17.85,0,0,0,12.19,4.32c7.82,0,12.75-5.27,12.75-11,0-7.16-6.21-10.37-11.59-12.53" class="cls-1"/><path d="M309.92,104.18a1,1,0,0,0-1.39,0,13.3,13.3,0,0,1-8.48,3.16,12.55,12.55,0,0,1-12.41-12.81c0-7,5.27-12.91,12.36-12.91a13.09,13.09,0,0,1,8.53,3.27.88.88,0,0,0,1.39,0l3.38-3.49a1,1,0,0,0-.06-1.55,18.73,18.73,0,0,0-13.41-5.15,20,20,0,1,0,0,39.9,19,19,0,0,0,13.47-5.38,1,1,0,0,0,.06-1.49Z" class="cls-1"/><path d="M326,75.25h-5.16a1.09,1.09,0,0,0-1.05,1.06V113a1.09,1.09,0,0,0,1.05,1.05H326a1.09,1.09,0,0,0,1-1.05V76.31a1.09,1.09,0,0,0-1-1.06" class="cls-1"/><path d="M360.06,75.25H337.5a1.06,1.06,0,0,0-1.05,1.06V113A1.06,1.06,0,0,0,337.5,114h22.56a1,1,0,0,0,1.05-1.05v-4.54a1.05,1.05,0,0,0-1.05-1.06h-16.4V97.7h13.69a1.06,1.06,0,0,0,1-1.06V92a1.09,1.09,0,0,0-1-1.05H343.66V81.9h16.4a1,1,0,0,0,1.05-1.05V76.31a1.05,1.05,0,0,0-1.05-1.06" class="cls-1"/><path d="M400,75.25h-5.1a1,1,0,0,0-1.05,1V99.19h-.06L370.75,74.7h-1.39a1,1,0,0,0-1.05,1V113a1.1,1.1,0,0,0,1.05,1.06h5.05a1.06,1.06,0,0,0,1-1.06V89.16h.06l23.16,25.44H400a1,1,0,0,0,1.05-1V76.3a1.08,1.08,0,0,0-1.05-1" class="cls-1"/><path d="M437.69,104.18a1,1,0,0,0-1.39,0,13.32,13.32,0,0,1-8.48,3.16,12.55,12.55,0,0,1-12.41-12.81c0-7,5.26-12.91,12.36-12.91a13.11,13.11,0,0,1,8.53,3.27.88.88,0,0,0,1.39,0l3.38-3.49a1,1,0,0,0-.06-1.55A18.73,18.73,0,0,0,427.6,74.7a20,20,0,1,0,0,39.9,19,19,0,0,0,13.47-5.38,1,1,0,0,0,.06-1.49Z" class="cls-1"/><path d="M471.21,75.25H448.65a1.05,1.05,0,0,0-1,1.06V113a1,1,0,0,0,1,1.05h22.56a1,1,0,0,0,1.05-1.05v-4.54a1.05,1.05,0,0,0-1.05-1.06H454.8V97.7h13.69a1.06,1.06,0,0,0,1.05-1.06V92A1.09,1.09,0,0,0,468.49,91H454.8V81.9h16.41a1,1,0,0,0,1.05-1.05V76.31a1.05,1.05,0,0,0-1.05-1.06" class="cls-1"/><path d="M490.82,91.1c-4.49-1.83-6.54-3.6-6.54-6.21,0-1.77,1.72-3.88,4.87-3.88s7.27,2.78,7.71,3a1.46,1.46,0,0,0,1.94-.66l2.1-3.16a1.36,1.36,0,0,0-.32-1.83,19.57,19.57,0,0,0-11.09-3.71c-8.81,0-12.47,5.7-12.47,10.64,0,6.53,5.21,9.86,10.42,12,4.66,1.88,7,3.82,7,6.65,0,2.38-2.16,4.27-5,4.27-3.61,0-8.1-3.28-8.38-3.44a1.28,1.28,0,0,0-1.88.39l-2,3.43c-.5.89-.22,1.17.28,1.67a17.82,17.82,0,0,0,12.19,4.32c7.81,0,12.74-5.27,12.74-11,0-7.16-6.2-10.37-11.58-12.53" class="cls-1"/><path d="M534.42,75.25H521.29a1,1,0,0,0-1,1.06V113a1,1,0,0,0,1,1.05h13.13a19.4,19.4,0,1,0,0-38.79m-.66,32h-6.32V82h6.32a12.22,12.22,0,0,1,12.47,12.63c0,7.26-5.26,12.69-12.47,12.69" class="cls-1"/><path d="M584.07,75.25H561.52a1.06,1.06,0,0,0-1.06,1.06V113a1.06,1.06,0,0,0,1.06,1.05h22.55a1.06,1.06,0,0,0,1.06-1.05v-4.54a1.06,1.06,0,0,0-1.06-1.06h-16.4V97.7h13.69a1.06,1.06,0,0,0,1-1.06V92a1.09,1.09,0,0,0-1-1.05H567.67V81.9h16.4a1.06,1.06,0,0,0,1.06-1.05V76.31a1.06,1.06,0,0,0-1.06-1.06" class="cls-1"/><path d="M625.19,107.39H611.05V76.3a1.09,1.09,0,0,0-1-1h-5.1a1,1,0,0,0-1,1V113a1,1,0,0,0,1,1.05h20.29a1,1,0,0,0,1-1.05v-4.54a1.06,1.06,0,0,0-1-1.06" class="cls-1"/><path d="M629.22,74.7a3.77,3.77,0,0,0-3.93,3.71A3.67,3.67,0,0,0,629,82.07a6.08,6.08,0,0,0,1.67-.28c0,3.88-3.22,6.37-3.77,6.76a.85.85,0,0,0-.11,1.28l.77.77a.86.86,0,0,0,1.28.06c1.44-1.28,5-4.6,5-10,0-4.55-2.6-5.93-4.6-5.93" class="cls-1"/><path d="M645.52,75.25h-5.16a1.09,1.09,0,0,0-1.05,1.06V113a1.08,1.08,0,0,0,1.05,1.05h5.16a1.09,1.09,0,0,0,1.05-1.05V76.31a1.09,1.09,0,0,0-1.05-1.06" class="cls-1"/><path d="M687.63,75.25h-5.1a1,1,0,0,0-1,1V99.19h-.06l-23-24.49H657a1,1,0,0,0-1.05,1V113a1.1,1.1,0,0,0,1.05,1.06h5a1.06,1.06,0,0,0,1.05-1.06V89.16h0L686.3,114.6h1.33a1,1,0,0,0,1-1V76.3a1.09,1.09,0,0,0-1-1" class="cls-1"/><path d="M728.35,94.82H717.71a1,1,0,0,0-1.05,1.05v4.38a1,1,0,0,0,1.05,1h4.43V106a17.33,17.33,0,0,1-6.59,1.39,12.61,12.61,0,0,1-12.47-12.69c0-6.93,5.49-12.86,12.41-12.86A12.54,12.54,0,0,1,723.86,85a1,1,0,0,0,1.45,0l3.43-3.6a1.09,1.09,0,0,0,0-1.56,20.93,20.93,0,0,0-13.53-5.15,19.92,19.92,0,0,0,0,39.84,28,28,0,0,0,13.75-3.6,1.06,1.06,0,0,0,.44-.89V95.87a1,1,0,0,0-1-1.05" class="cls-1"/><path d="M760.38,75.25H737.82a1.05,1.05,0,0,0-1.05,1.06V113a1,1,0,0,0,1.05,1.05h22.56a1.06,1.06,0,0,0,1-1.05v-4.54a1.06,1.06,0,0,0-1-1.06H744V97.7h13.69a1.06,1.06,0,0,0,1.05-1.06V92A1.09,1.09,0,0,0,757.66,91H744V81.9h16.41a1.06,1.06,0,0,0,1-1.05V76.31a1.06,1.06,0,0,0-1-1.06" class="cls-1"/><path d="M800.32,75.25h-5.09a1,1,0,0,0-1.05,1V99.19h-.06L771.06,74.7h-1.38a1,1,0,0,0-1,1V113a1.1,1.1,0,0,0,1,1.06h5a1.07,1.07,0,0,0,1.06-1.06V89.16h.05L799,114.6h1.32a1,1,0,0,0,1.06-1V76.3a1.09,1.09,0,0,0-1.06-1" class="cls-1"/><path d="M816.94,75.25h-5.15a1.09,1.09,0,0,0-1,1.06V113a1.08,1.08,0,0,0,1,1.05h5.15A1.09,1.09,0,0,0,818,113V76.31a1.09,1.09,0,0,0-1.06-1.06" class="cls-1"/><path d="M851,75.25H828.41a1.05,1.05,0,0,0-1,1.06V113a1,1,0,0,0,1,1.05H851a1.06,1.06,0,0,0,1-1.05v-4.54a1.06,1.06,0,0,0-1-1.06H834.56V97.7h13.69a1.06,1.06,0,0,0,1-1.06V92a1.09,1.09,0,0,0-1-1.05H834.56V81.9H851a1.06,1.06,0,0,0,1-1.05V76.31a1.06,1.06,0,0,0-1-1.06" class="cls-1"/><path d="M888.48,75.25h-5.27a1.05,1.05,0,0,0-1.05,1.06V99c0,4.66-3.27,8.37-8.09,8.37s-8-3.71-8-8.42V76.31A1.06,1.06,0,0,0,865,75.25h-5.26a1.09,1.09,0,0,0-1.05,1.06v23a15.43,15.43,0,0,0,30.86,0v-23a1.09,1.09,0,0,0-1-1.06" class="cls-1"/><path d="M919.12,98.36c4.82-1.94,8.2-6.1,8.2-11.19a12,12,0,0,0-12.08-11.92H899.39a1.06,1.06,0,0,0-1.06,1V113a1.05,1.05,0,0,0,1.06,1.05h5.09a1.09,1.09,0,0,0,1.06-1.05V98.86h6.15l7.37,14.69a1,1,0,0,0,.89.49h5.82a1,1,0,0,0,.94-1.6Zm-4.49-5.43h-9v-11h9a5.52,5.52,0,0,1,5.49,5.37,5.65,5.65,0,0,1-5.49,5.66" class="cls-1"/><path d="M276.47,6.15H251.72a1.15,1.15,0,0,0-1.15,1.15V47.55a1.16,1.16,0,0,0,1.15,1.15h24.75a1.15,1.15,0,0,0,1.15-1.15v-5a1.15,1.15,0,0,0-1.15-1.15h-18V30.77h15a1.16,1.16,0,0,0,1.16-1.16v-5a1.2,1.2,0,0,0-1.16-1.16h-15v-10h18a1.14,1.14,0,0,0,1.15-1.15v-5a1.14,1.14,0,0,0-1.15-1.15" class="cls-1"/><path d="M315.26,37.88a1.13,1.13,0,0,0-1.52,0,14.6,14.6,0,0,1-9.3,3.47,13.77,13.77,0,0,1-13.62-14c0-7.65,5.77-14.16,13.56-14.16a14.35,14.35,0,0,1,9.36,3.59,1,1,0,0,0,1.52,0L319,12.9a1.13,1.13,0,0,0-.06-1.71,20.6,20.6,0,0,0-14.71-5.65,21.89,21.89,0,1,0,0,43.77A20.86,20.86,0,0,0,319,43.42a1.17,1.17,0,0,0,.07-1.65Z" class="cls-1"/><path d="M344.74,5.54a21.8,21.8,0,0,0-21.82,22A21.86,21.86,0,1,0,344.74,5.54m0,35.87a14,14,0,0,1,0-28,14,14,0,1,1,0,28" class="cls-1"/><path d="M375,48.7h22.25a1.15,1.15,0,0,0,1.15-1.15v-5a1.15,1.15,0,0,0-1.15-1.15h-15.5V7.3a1.19,1.19,0,0,0-1.16-1.15H375A1.15,1.15,0,0,0,373.8,7.3V47.55A1.16,1.16,0,0,0,375,48.7" class="cls-1"/><path d="M430.77,47.55v-5a1.16,1.16,0,0,0-1.16-1.15h-18V30.77h15a1.16,1.16,0,0,0,1.16-1.16v-5a1.2,1.2,0,0,0-1.16-1.16h-15v-10h18a1.16,1.16,0,0,0,1.16-1.15v-5a1.15,1.15,0,0,0-1.16-1.15H404.87a1.15,1.15,0,0,0-1.16,1.15V47.55a1.15,1.15,0,0,0,1.16,1.15h24.74a1.15,1.15,0,0,0,1.16-1.15" class="cls-1"/><path d="M484.69,24.75l3.59,23a1.31,1.31,0,0,0,1.16.91H495a1.05,1.05,0,0,0,1.09-1.4L488.89,6.45a1,1,0,0,0-1.09-.91h-1a1,1,0,0,0-1,.61L472.41,34.84h-.18L458.86,6.15a1.12,1.12,0,0,0-1-.61h-1a1,1,0,0,0-1.09.91L448.52,47.3a1.12,1.12,0,0,0,1.16,1.4h5.47a1.17,1.17,0,0,0,1.09-.91l3.53-23H460l10.76,23.89a1.09,1.09,0,0,0,1,.67h1.09a1,1,0,0,0,1-.67l10.64-23.89Z" class="cls-1"/><path d="M530.29,47.49a1.75,1.75,0,0,0,1.76,1.22h5.29a1.08,1.08,0,0,0,1-1.59L519.65,6.21a1,1,0,0,0-1-.67H518a1.1,1.1,0,0,0-1,.67l-18.9,40.91a1.08,1.08,0,0,0,1,1.59h5.29a1.83,1.83,0,0,0,1.76-1.22l3-6.57h18.18ZM512.11,34.17l6-13.37h.18l6.08,13.37Z" class="cls-1"/><path d="M566.83,48.71h6.38a1.16,1.16,0,0,0,1-1.77L565.92,31.5c5.28-2.13,9-6.69,9-12.28A13.16,13.16,0,0,0,561.66,6.15H544.27a1.14,1.14,0,0,0-1.15,1.15V47.55a1.15,1.15,0,0,0,1.15,1.16h5.6A1.2,1.2,0,0,0,551,47.55V32h6.75l8.08,16.12a1.06,1.06,0,0,0,1,.55M561,25.54h-9.91V13.44H561a6.05,6.05,0,0,1,6,5.9,6.2,6.2,0,0,1-6,6.2" class="cls-1"/><path d="M623.49,27.49A21.86,21.86,0,1,0,601.6,49.31a21.85,21.85,0,0,0,21.89-21.82M601.6,41.41a14,14,0,0,1,0-28,14,14,0,1,1,0,28" class="cls-1"/><path d="M664.34,41.77l-3.77-3.89a1.12,1.12,0,0,0-1.51,0,14.61,14.61,0,0,1-9.31,3.47,13.77,13.77,0,0,1-13.61-14c0-7.65,5.77-14.16,13.55-14.16a14.39,14.39,0,0,1,9.37,3.58,1,1,0,0,0,1.51,0l3.71-3.82a1.13,1.13,0,0,0-.06-1.71,20.61,20.61,0,0,0-14.71-5.65,21.89,21.89,0,1,0,0,43.77,20.82,20.82,0,0,0,14.77-5.9,1.15,1.15,0,0,0,.06-1.64" class="cls-1"/><path d="M699.91,48.71h5.29a1.08,1.08,0,0,0,1-1.59L687.51,6.21a1,1,0,0,0-1-.67h-.6a1.09,1.09,0,0,0-1,.67L665.92,47.12a1.08,1.08,0,0,0,1,1.59h5.29A1.84,1.84,0,0,0,674,47.49l3-6.57h18.18l3,6.57a1.76,1.76,0,0,0,1.77,1.22M680,34.17l6-13.37h.18l6.08,13.37Z" class="cls-1"/><path d="M712.13,48.7h5.65a1.2,1.2,0,0,0,1.16-1.15V7.3a1.19,1.19,0,0,0-1.16-1.15h-5.65A1.19,1.19,0,0,0,711,7.3V47.55a1.2,1.2,0,0,0,1.16,1.15" class="cls-1"/><path d="M764,6.15h-5.6a1.15,1.15,0,0,0-1.15,1.15V32.41h-.06L731.88,5.54h-1.52a1.15,1.15,0,0,0-1.15,1.09V47.55a1.2,1.2,0,0,0,1.15,1.16h5.54a1.15,1.15,0,0,0,1.15-1.16V21.41h.06l25.42,27.91H764a1.15,1.15,0,0,0,1.15-1.1V7.3A1.2,1.2,0,0,0,764,6.15" class="cls-1"/><path d="M801.31,6.15H776.57a1.15,1.15,0,0,0-1.16,1.15V47.55a1.16,1.16,0,0,0,1.16,1.15h24.74a1.16,1.16,0,0,0,1.16-1.15v-5a1.16,1.16,0,0,0-1.16-1.15h-18V30.77h15a1.16,1.16,0,0,0,1.15-1.16v-5a1.2,1.2,0,0,0-1.15-1.16h-15v-10h18a1.15,1.15,0,0,0,1.16-1.15v-5a1.15,1.15,0,0,0-1.16-1.15" class="cls-1"/><path d="M838.52,6.15H824.11A1.14,1.14,0,0,0,823,7.3V47.55a1.13,1.13,0,0,0,1.09,1.15h14.41a21.28,21.28,0,1,0,0-42.55m-.73,35.14h-6.93V13.5h6.93c7.91,0,13.68,6,13.68,13.86s-5.77,13.93-13.68,13.93" class="cls-1"/><path d="M893,6.15H868.25A1.14,1.14,0,0,0,867.1,7.3V47.55a1.15,1.15,0,0,0,1.15,1.15H893a1.16,1.16,0,0,0,1.15-1.15v-5A1.16,1.16,0,0,0,893,41.41H875V30.77h15a1.16,1.16,0,0,0,1.15-1.16v-5A1.2,1.2,0,0,0,890,23.41H875v-10h18a1.15,1.15,0,0,0,1.15-1.15v-5A1.15,1.15,0,0,0,893,6.15" class="cls-1"/><path d="M913,42.32c-3.94,0-8.87-3.59-9.18-3.77a1.39,1.39,0,0,0-2.06.43l-2.19,3.77c-.55,1-.24,1.27.3,1.82,1.22,1.16,5.72,4.74,13.38,4.74,8.57,0,14-5.77,14-12,0-7.84-6.81-11.37-12.7-13.74-4.93-2-7.18-4-7.18-6.8,0-2,1.89-4.26,5.35-4.26s8,3,8.45,3.34a1.6,1.6,0,0,0,2.13-.72l2.31-3.47a1.52,1.52,0,0,0-.36-2,21.44,21.44,0,0,0-12.16-4.07c-9.67,0-13.68,6.26-13.68,11.67,0,7.17,5.71,10.82,11.43,13.13,5.11,2.07,7.71,4.2,7.71,7.3,0,2.61-2.36,4.68-5.53,4.68" class="cls-1"/><rect height="12.62" width="471.36" y="141.56" x="454.76" class="cls-2"/><path d="M270.11,132.74h-.44a.59.59,0,0,0-.58.34L261.29,150h-.06l-3-16.92c0-.19-.24-.34-.55-.34h-.44a.59.59,0,0,0-.64.43l-6.45,20.71c-.12.4,0,.74.47.74h1.08a.63.63,0,0,0,.64-.43L257,138.51h0l2.83,16.08c0,.19.22.34.56.34h.4a.66.66,0,0,0,.58-.34l7.24-15.81h0l.31,15.41c0,.22.18.43.55.43h1.08a.67.67,0,0,0,.71-.74l-.68-20.71c0-.25-.24-.43-.55-.43" class="cls-2"/><path d="M286,154.93a7.26,7.26,0,0,0,4.12-1.41c.41-.35.38-.56.22-.81l-.37-.52c-.21-.34-.46-.34-.77-.16a5.25,5.25,0,0,1-2.77,1c-1.88,0-3-1.94-2.87-4,5.39.49,8.26-1.08,8.26-3.76,0-1.85-1.29-3.24-3.79-3.24-3.85,0-6.53,3.49-6.53,7.49,0,3,1.88,5.46,4.5,5.46m1.75-11.06c1.27,0,1.94.64,1.94,1.48,0,1.47-2.21,2.37-5.85,2a4.48,4.48,0,0,1,3.91-3.51" class="cls-2"/><path d="M309.19,147.53l-.9,6.51a.46.46,0,0,0,.43.58h1.08a.68.68,0,0,0,.62-.58l.89-6.51a11.59,11.59,0,0,0,.16-1.75,5,5,0,0,1,3.45-1.73c1.57,0,2.25,1.17,1.94,3.48l-.92,6.51a.48.48,0,0,0,.46.58h1.08a.65.65,0,0,0,.61-.58l.93-6.51c.43-3.2-.65-5.54-3.61-5.54-2.19,0-4.28,1.94-4.47,2.06a3.38,3.38,0,0,0-3.21-2.06,6.28,6.28,0,0,0-3.85,1.63l-.12-1a.37.37,0,0,0-.4-.37h-.62a.59.59,0,0,0-.61.59L300.59,154a.46.46,0,0,0,.43.58h1.08a.68.68,0,0,0,.61-.58l1.14-8.23c.06,0,1.42-1.76,3.3-1.76,1.64,0,2.38,1.14,2,3.48" class="cls-2"/><path d="M330.78,153.3a4.08,4.08,0,0,0,3.2,1.64c3.48,0,6.1-3.46,6.1-7.47,0-3.05-1.94-5.48-4.56-5.48a6.32,6.32,0,0,0-2.95.8l1.26-9.16a.47.47,0,0,0-.43-.58h-1.11a.66.66,0,0,0-.59.58L328.84,154a.48.48,0,0,0,.43.6h.64a.62.62,0,0,0,.56-.5Zm1.51-8.51a5.71,5.71,0,0,1,2.71-.74c1.79,0,2.93,1.63,2.93,3.7,0,2.68-1.7,5.24-3.89,5.24a3,3,0,0,1-2.62-2Z" class="cls-2"/><path d="M356.15,142a5,5,0,0,0-3.54,1.64l-.12-.89c0-.28-.19-.44-.4-.44h-.62a.62.62,0,0,0-.62.59L349.31,154a.46.46,0,0,0,.43.58h1a.74.74,0,0,0,.68-.58l1.14-8.23c.06,0,1.23-1.76,3-1.76a2.87,2.87,0,0,1,1.2.25c.28.12.49.12.71-.28l.52-1c.46-.86-.92-1-1.82-1" class="cls-2"/><path d="M370,154.93a7.27,7.27,0,0,0,4.13-1.41c.4-.35.37-.56.22-.81l-.37-.52a.49.49,0,0,0-.77-.16,5.29,5.29,0,0,1-2.78,1c-1.88,0-3-1.94-2.86-4,5.39.49,8.25-1.08,8.25-3.76,0-1.85-1.29-3.24-3.78-3.24-3.86,0-6.54,3.49-6.54,7.49,0,3,1.88,5.46,4.5,5.46m1.76-11.06c1.26,0,1.94.64,1.94,1.48,0,1.47-2.22,2.37-5.86,2a4.49,4.49,0,0,1,3.92-3.51" class="cls-2"/><path d="M410.06,133.05H409a.75.75,0,0,0-.65.58l-1.29,9.16a5.06,5.06,0,0,0-2.74-.8c-3.64,0-6.39,3.36-6.39,7.49,0,3,1.82,5.45,4.29,5.45a5.71,5.71,0,0,0,3.67-1.6l.12.83c0,.28.12.46.4.46h.68a.51.51,0,0,0,.55-.46l2.87-20.53a.51.51,0,0,0-.46-.58M405.93,151s-1.21,2-3.18,2c-1.82,0-2.62-1.76-2.62-3.73,0-2.93,1.85-5.21,4.16-5.21a4.48,4.48,0,0,1,2.5.74Z" class="cls-2"/><path d="M425,142c-3.85,0-6.54,3.49-6.54,7.5,0,3,1.88,5.45,4.51,5.45a7.26,7.26,0,0,0,4.12-1.41c.41-.35.37-.56.22-.81l-.37-.52c-.22-.34-.46-.34-.77-.15a5.37,5.37,0,0,1-2.78,1c-1.87,0-3.05-1.94-2.86-4,5.39.5,8.26-1.08,8.26-3.76,0-1.85-1.29-3.24-3.79-3.24m-4.2,5.4a4.49,4.49,0,0,1,3.92-3.51c1.26,0,1.94.64,1.94,1.47,0,1.48-2.22,2.38-5.86,2" class="cls-2"/><path d="M267.42,179.58h-3a.63.63,0,0,0-.63.63V189h-9.41v-8.81a.63.63,0,0,0-.63-.63h-3.06a.65.65,0,0,0-.63.63v22a.65.65,0,0,0,.63.62h3.06a.63.63,0,0,0,.63-.62v-9.19h9.41v9.19a.63.63,0,0,0,.63.62h3a.64.64,0,0,0,.62-.62v-22a.65.65,0,0,0-.62-.63" class="cls-2"/><path d="M286.48,179.35a11.85,11.85,0,1,0,11.87,11.88,11.82,11.82,0,0,0-11.87-11.88m0,19.42a7.57,7.57,0,0,1,0-15.14,7.57,7.57,0,1,1,0,15.14" class="cls-2"/><path d="M323.14,179.58h-3a.63.63,0,0,0-.63.62v13.6h0l-13-14.23h-.83a.62.62,0,0,0-.62.58v22.08a.64.64,0,0,0,.62.62h3a.62.62,0,0,0,.62-.62V188.5h0l13.1,14.35h.8a.61.61,0,0,0,.62-.59V180.2a.64.64,0,0,0-.62-.62" class="cls-2"/><path d="M374.61,193.52a7.44,7.44,0,0,0,4.83-6.79,7.14,7.14,0,0,0-7.12-7.15h-11a.63.63,0,0,0-.62.63v22a.63.63,0,0,0,.62.64h3a.65.65,0,0,0,.62-.64v-8.4h5.27l4.66,8.74a.58.58,0,0,0,.53.3h3.42a.63.63,0,0,0,.56-1ZM372,190.13h-7v-6.56h7a3.28,3.28,0,0,1,0,6.56" class="cls-2"/><path d="M404,199.24h-6.15V183.18h4.83a.52.52,0,0,0,.49-.51v-2.58a.52.52,0,0,0-.49-.51H388.53a.51.51,0,0,0-.48.51v2.58a.51.51,0,0,0,.48.51h4.83v16.06h-6.15a.51.51,0,0,0-.48.51v2.59a.51.51,0,0,0,.48.51H404a.51.51,0,0,0,.48-.51v-2.59a.51.51,0,0,0-.48-.51" class="cls-2"/><path d="M468.89,180.51h.85a2.44,2.44,0,0,1,1.93.73,4.61,4.61,0,0,1,.47,2.66v9.17a14.38,14.38,0,0,1-.64,5.12,5.19,5.19,0,0,1-2.4,2.47,8,8,0,0,1-4,1,6.32,6.32,0,0,1-2.93-.61,4.83,4.83,0,0,1-1.83-1.57,6.34,6.34,0,0,1-.88-2.66,21.83,21.83,0,0,1-.24-3V183.9a4.87,4.87,0,0,1,.42-2.5,2.22,2.22,0,0,1,2-.89h.87v-.62h-9.79v.62h.86a2.36,2.36,0,0,1,1.86.65,4.47,4.47,0,0,1,.57,2.74v8.85a19.51,19.51,0,0,0,.53,5.58,7.06,7.06,0,0,0,2.73,3.46,10.2,10.2,0,0,0,5.63,1.28,9.44,9.44,0,0,0,5.38-1.35,6.64,6.64,0,0,0,2.66-3.21,16.35,16.35,0,0,0,.67-5.29V184a5.12,5.12,0,0,1,.35-2.4,2.32,2.32,0,0,1,2.06-1.12h.85v-.62h-8Z" class="cls-2"/><path d="M499.59,180.51h.79a2.46,2.46,0,0,1,1.95.7,4.5,4.5,0,0,1,.47,2.6v13.06l-13.84-17h-6.15v.62a5.31,5.31,0,0,1,1.47.15,5.43,5.43,0,0,1,1.5.69,10.46,10.46,0,0,1,1.49,1.51v15.75a5,5,0,0,1-.37,2.44,2.3,2.3,0,0,1-2,.86h-.79v.62H492v-.62h-.8a2.52,2.52,0,0,1-2-.69,4.68,4.68,0,0,1-.45-2.61V184.67l14.93,18.23h.6V183.81a4.94,4.94,0,0,1,.37-2.43,2.29,2.29,0,0,1,2-.87h.8v-.62h-7.89Z" class="cls-2"/><path d="M514.8,180.51h.8a3.13,3.13,0,0,1,1.54.4,1.48,1.48,0,0,1,.68.71,7.41,7.41,0,0,1,.22,2.28v14.63a5.08,5.08,0,0,1-.4,2.57,2.43,2.43,0,0,1-2,.81h-.8v.63h9.71v-.63h-.82a3,3,0,0,1-1.52-.39,1.55,1.55,0,0,1-.7-.72,7.33,7.33,0,0,1-.22-2.27V183.9a5,5,0,0,1,.42-2.58,2.41,2.41,0,0,1,2-.81h.82v-.62H514.8Z" class="cls-2"/><path d="M532.64,179.89l-.27,5.31H533a5,5,0,0,1,.74-2.44,3.15,3.15,0,0,1,1.49-1.22,7.76,7.76,0,0,1,2.25-.23h2.73v17.3a5.14,5.14,0,0,1-.37,2.44,2.31,2.31,0,0,1-2,.86H537v.63h9.6v-.63h-.79a2.48,2.48,0,0,1-1.95-.69,4.68,4.68,0,0,1-.45-2.61v-17.3h3.19a4.72,4.72,0,0,1,2.26.46,3.35,3.35,0,0,1,1.38,1.43,6.4,6.4,0,0,1,.5,2h.64l-.25-5.31Z" class="cls-2"/><path d="M575.54,200a4.07,4.07,0,0,1-1.67,1.05,10.32,10.32,0,0,1-2.79.27h-3.84a2.79,2.79,0,0,1-1.27-.2,1,1,0,0,1-.47-.51,7,7,0,0,1-.13-1.83v-7.47h5a5.09,5.09,0,0,1,2.11.34,2,2,0,0,1,1,.92,8.58,8.58,0,0,1,.47,2.12h.62v-7.89h-.62a3.72,3.72,0,0,1-1,2.71,4,4,0,0,1-2.59.59h-5v-9h6.21a7.44,7.44,0,0,1,2.36.26,2.64,2.64,0,0,1,1.25,1,7.65,7.65,0,0,1,.78,2.46h.65l-.25-5H558.92v.62h.8a2.58,2.58,0,0,1,2,.67,4.84,4.84,0,0,1,.43,2.65v14.72a7.72,7.72,0,0,1-.19,2.18,1.37,1.37,0,0,1-.73.8,3.1,3.1,0,0,1-1.52.39h-.8v.61h17.45l2-5.67h-.67a13.34,13.34,0,0,1-2.12,3.12" class="cls-2"/><path d="M602.63,181a20.31,20.31,0,0,0-7.72-1.15h-9.22v.62h.85a2.46,2.46,0,0,1,1.94.73,4.72,4.72,0,0,1,.47,2.66v14.63a5.16,5.16,0,0,1-.37,2.47,2.25,2.25,0,0,1-2,.91h-.85v.62h10.12c4.4,0,7.67-1.17,9.82-3.54a11.28,11.28,0,0,0,2.87-7.89,11.91,11.91,0,0,0-1.61-6.22,9.21,9.21,0,0,0-4.26-3.84m-.49,17.6a8.43,8.43,0,0,1-6.43,2.73,17.25,17.25,0,0,1-3.56-.47V181.65a13.86,13.86,0,0,1,3.43-.49,8.63,8.63,0,0,1,6.56,2.7,11.95,11.95,0,0,1,0,14.78" class="cls-2"/><path d="M649.29,180.51h.85a2.46,2.46,0,0,1,1.94.73,4.7,4.7,0,0,1,.47,2.66v9.17a14.33,14.33,0,0,1-.65,5.12,5.12,5.12,0,0,1-2.39,2.47,8.06,8.06,0,0,1-4,1,6.35,6.35,0,0,1-2.93-.61,4.83,4.83,0,0,1-1.83-1.57,6.49,6.49,0,0,1-.87-2.66,22,22,0,0,1-.25-3V183.9a5,5,0,0,1,.42-2.5,2.23,2.23,0,0,1,2-.89H643v-.62h-9.79v.62H634a2.33,2.33,0,0,1,1.86.65,4.39,4.39,0,0,1,.58,2.74v8.85a19.51,19.51,0,0,0,.53,5.58,7,7,0,0,0,2.73,3.46,10.18,10.18,0,0,0,5.62,1.28,9.45,9.45,0,0,0,5.39-1.35,6.67,6.67,0,0,0,2.65-3.21,16,16,0,0,0,.68-5.29V184a5.12,5.12,0,0,1,.35-2.4,2.3,2.3,0,0,1,2.05-1.12h.85v-.62h-8Z" class="cls-2"/><path d="M680,180.51h.78a2.48,2.48,0,0,1,2,.7,4.52,4.52,0,0,1,.46,2.6v13.06l-13.84-17h-6.14v.62a5.41,5.41,0,0,1,1.47.15,5.35,5.35,0,0,1,1.49.69,10.38,10.38,0,0,1,1.5,1.51v15.75a5.14,5.14,0,0,1-.37,2.44,2.32,2.32,0,0,1-2.06.86h-.78v.62h7.88v-.62h-.8a2.48,2.48,0,0,1-1.95-.69,4.56,4.56,0,0,1-.46-2.61V184.67l14.93,18.23h.6V183.81a5.06,5.06,0,0,1,.37-2.43,2.3,2.3,0,0,1,2-.87h.8v-.62H680Z" class="cls-2"/><path d="M695.21,180.51h.8a3.16,3.16,0,0,1,1.54.4,1.61,1.61,0,0,1,.69.71,7.86,7.86,0,0,1,.21,2.28v14.63a5.08,5.08,0,0,1-.4,2.57,2.44,2.44,0,0,1-2,.81h-.8v.63h9.7v-.63h-.82a3,3,0,0,1-1.52-.39,1.65,1.65,0,0,1-.7-.72,7.66,7.66,0,0,1-.22-2.27V183.9a5.06,5.06,0,0,1,.42-2.58,2.42,2.42,0,0,1,2-.81h.82v-.62h-9.7Z" class="cls-2"/><path d="M729,180.51l.29.05a3.08,3.08,0,0,1,1.63.63,1.25,1.25,0,0,1,.48.92,9.06,9.06,0,0,1-.77,2.69l-5.35,13.11-5.76-13.27a7.67,7.67,0,0,1-.77-2.61,1.21,1.21,0,0,1,.47-1,4.27,4.27,0,0,1,2-.53v-.62h-9.24v.62a4.55,4.55,0,0,1,1.64.38,3,3,0,0,1,1,.8,11.87,11.87,0,0,1,.91,1.84l8.48,19.52h.63l7.89-19.27a7,7,0,0,1,1.57-2.5,3.61,3.61,0,0,1,1.82-.77v-.62h-7Z" class="cls-2"/><path d="M759.75,200a4.07,4.07,0,0,1-1.67,1.05,10.32,10.32,0,0,1-2.79.27h-3.84a2.79,2.79,0,0,1-1.27-.2,1,1,0,0,1-.47-.51,7.51,7.51,0,0,1-.13-1.83v-7.47h5a5.07,5.07,0,0,1,2.1.34,2.07,2.07,0,0,1,1,.92,8.73,8.73,0,0,1,.46,2.12h.62v-7.89h-.62a3.76,3.76,0,0,1-1,2.71,4.07,4.07,0,0,1-2.59.59h-5v-9h6.21a7.44,7.44,0,0,1,2.36.26,2.67,2.67,0,0,1,1.26,1,8,8,0,0,1,.77,2.46h.66l-.25-5H743.14v.62h.8a2.57,2.57,0,0,1,2,.67,4.8,4.8,0,0,1,.44,2.65v14.72a7.6,7.6,0,0,1-.2,2.18,1.38,1.38,0,0,1-.72.8,3.16,3.16,0,0,1-1.52.39h-.8v.61h17.45l1.95-5.67h-.67a12.76,12.76,0,0,1-2.12,3.12" class="cls-2"/><path d="M786.67,198l-4.68-6.5a7.63,7.63,0,0,0,4.22-2.17,5.27,5.27,0,0,0,1.36-3.63,5,5,0,0,0-1.19-3.35,6.17,6.17,0,0,0-2.91-2,20.1,20.1,0,0,0-5.32-.52H769.9v.62h.86a2.47,2.47,0,0,1,1.93.73,4.65,4.65,0,0,1,.47,2.66v14.63a5.29,5.29,0,0,1-.35,2.45,2.29,2.29,0,0,1-2,.94h-.86v.62h9.7v-.62h-.88a2.36,2.36,0,0,1-1.9-.74,4.53,4.53,0,0,1-.47-2.65V192l.52,0h.46l1.39,0,7.66,10.59h6v-.62a6.94,6.94,0,0,1-3-.94,11.62,11.62,0,0,1-2.75-3m-9.39-7.1h-.38l-.55,0v-9.41a15,15,0,0,1,2.62-.32,4.75,4.75,0,0,1,3.52,1.33,4.66,4.66,0,0,1,1.32,3.44,4.49,4.49,0,0,1-1.64,3.58,7.34,7.34,0,0,1-4.89,1.4" class="cls-2"/><path d="M812.24,192a35.9,35.9,0,0,0-4.34-2.61c-2.59-1.4-4.24-2.5-4.92-3.34a2.85,2.85,0,0,1-.72-1.89,3.21,3.21,0,0,1,1.13-2.41,4,4,0,0,1,2.88-1.06,6.09,6.09,0,0,1,3,.78,5.54,5.54,0,0,1,2.22,2.12,9.83,9.83,0,0,1,1.08,3.6h.61v-7.84h-.61a2.22,2.22,0,0,1-.44,1,1,1,0,0,1-.71.25,4,4,0,0,1-1.32-.41,9.56,9.56,0,0,0-3.82-.89,6.69,6.69,0,0,0-4.77,1.76,5.58,5.58,0,0,0-1.87,4.2,5.36,5.36,0,0,0,.64,2.58A6.84,6.84,0,0,0,802.1,190a34.59,34.59,0,0,0,4.14,2.6c1.93,1.09,3.11,1.79,3.55,2.13a5,5,0,0,1,1.42,1.59,3.34,3.34,0,0,1-.75,4.29,4.7,4.7,0,0,1-3.29,1.1,7,7,0,0,1-3.32-.8,5.67,5.67,0,0,1-2.24-2,10.8,10.8,0,0,1-1.18-3.65h-.61v7.76h.61a2.19,2.19,0,0,1,.36-1,.9.9,0,0,1,.67-.25,9.54,9.54,0,0,1,2.06.52,15.67,15.67,0,0,0,2.15.61,10.83,10.83,0,0,0,1.85.15,7.22,7.22,0,0,0,5.13-1.86,5.86,5.86,0,0,0,2-4.43,5.63,5.63,0,0,0-.63-2.59,6.41,6.41,0,0,0-1.78-2.15" class="cls-2"/><path d="M823.33,180.51h.8a3.13,3.13,0,0,1,1.54.4,1.48,1.48,0,0,1,.68.71,7.41,7.41,0,0,1,.22,2.28v14.63a5.2,5.2,0,0,1-.4,2.57,2.43,2.43,0,0,1-2,.81h-.8v.63H833v-.63h-.82a3,3,0,0,1-1.52-.39,1.65,1.65,0,0,1-.7-.72,7.77,7.77,0,0,1-.21-2.27V183.9a5.09,5.09,0,0,1,.41-2.58,2.42,2.42,0,0,1,2-.81H833v-.62h-9.7Z" class="cls-2"/><path d="M841.16,179.89l-.26,5.31h.63a5.07,5.07,0,0,1,.73-2.44,3.19,3.19,0,0,1,1.49-1.22,7.88,7.88,0,0,1,2.26-.23h2.72v17.3a5,5,0,0,1-.37,2.44,2.3,2.3,0,0,1-2,.86h-.8v.63h9.6v-.63h-.78a2.52,2.52,0,0,1-2-.69,4.8,4.8,0,0,1-.44-2.61v-17.3h3.18a4.79,4.79,0,0,1,2.27.46,3.41,3.41,0,0,1,1.38,1.43,6.69,6.69,0,0,1,.5,2h.63l-.25-5.31Z" class="cls-2"/><path d="M867.6,180.51h.8a3.16,3.16,0,0,1,1.54.4,1.53,1.53,0,0,1,.68.71,7.75,7.75,0,0,1,.22,2.28v14.63a5,5,0,0,1-.41,2.57,2.42,2.42,0,0,1-2,.81h-.8v.63h9.7v-.63h-.82a3,3,0,0,1-1.52-.39,1.6,1.6,0,0,1-.7-.72,7.77,7.77,0,0,1-.21-2.27V183.9a5,5,0,0,1,.41-2.58,2.41,2.41,0,0,1,2-.81h.82v-.62h-9.7Z" class="cls-2"/><path d="M901.44,200a4.1,4.1,0,0,1-1.66,1.05,10.32,10.32,0,0,1-2.79.27h-3.84a2.84,2.84,0,0,1-1.28-.2,1,1,0,0,1-.46-.51,7,7,0,0,1-.13-1.83v-7.47h5a5.09,5.09,0,0,1,2.11.34,2.09,2.09,0,0,1,1,.92,8.58,8.58,0,0,1,.47,2.12h.62v-7.89h-.62a3.76,3.76,0,0,1-1,2.71,4,4,0,0,1-2.59.59h-5v-9h6.21a7.36,7.36,0,0,1,2.35.26,2.7,2.7,0,0,1,1.27,1,8,8,0,0,1,.77,2.46h.65l-.25-5H884.83v.62h.8a2.54,2.54,0,0,1,2,.67,4.71,4.71,0,0,1,.44,2.65v14.72a7.72,7.72,0,0,1-.19,2.18,1.37,1.37,0,0,1-.73.8,3.13,3.13,0,0,1-1.52.39h-.8v.61h17.45l2-5.67h-.66a12.75,12.75,0,0,1-2.13,3.12" class="cls-2"/><path d="M927.57,194.17a6.3,6.3,0,0,0-1.78-2.15,35.9,35.9,0,0,0-4.34-2.61c-2.59-1.4-4.24-2.5-4.92-3.34a2.81,2.81,0,0,1-.73-1.89,3.26,3.26,0,0,1,1.14-2.41,4,4,0,0,1,2.87-1.06,6.17,6.17,0,0,1,3,.78,5.64,5.64,0,0,1,2.21,2.12,9.54,9.54,0,0,1,1.07,3.6h.62v-7.84h-.62a2,2,0,0,1-.44,1,1,1,0,0,1-.71.25,3.81,3.81,0,0,1-1.31-.41,9.61,9.61,0,0,0-3.83-.89,6.7,6.7,0,0,0-4.76,1.76,5.58,5.58,0,0,0-1.87,4.2,5.47,5.47,0,0,0,.63,2.58,7,7,0,0,0,1.87,2.13,33.46,33.46,0,0,0,4.13,2.6,38.78,38.78,0,0,1,3.55,2.13,5.06,5.06,0,0,1,1.44,1.59,3.57,3.57,0,0,1,.45,1.69,3.37,3.37,0,0,1-1.21,2.59,4.67,4.67,0,0,1-3.3,1.11,7,7,0,0,1-3.31-.8,5.7,5.7,0,0,1-2.25-2,11.33,11.33,0,0,1-1.16-3.65h-.62v7.76H914a1.85,1.85,0,0,1,.36-1,.85.85,0,0,1,.65-.25,9.44,9.44,0,0,1,2.07.52,16.1,16.1,0,0,0,2.14.61,11,11,0,0,0,1.86.15,7.22,7.22,0,0,0,5.13-1.86,5.87,5.87,0,0,0,2-4.44,5.62,5.62,0,0,0-.63-2.58" class="cls-2"/><path d="M421,189.09c-2.78-1.08-4.19-2.15-4.18-3.69,0-1.27,1.06-2.31,3-2.31s3.39.84,5.1,1.58a1,1,0,0,0,1.2-.39l1.12-1.64a.8.8,0,0,0-.2-1.09,12.52,12.52,0,0,0-6.87-2.2c-5.46,0-7.62,3.38-7.62,6.31,0,3.89,3.12,5.86,6.35,7.12,2.88,1.11,4.53,2,4.48,3.89,0,1.41-1.34,2.52-3.12,2.53-2.39,0-5.3-1.93-6-2.35a.82.82,0,0,0-1.17.23l-1.24,2c-.31.53-.13.7.17,1a13.43,13.43,0,0,0,8.23,2.94c4.84,0,7.9-3.13,7.9-6.52,0-4.25-3.85-6.16-7.18-7.44" class="cls-2"/><path d="M342.22,179.35a11.85,11.85,0,1,0,11.87,11.88,11.81,11.81,0,0,0-11.87-11.88m0,19.42a7.57,7.57,0,0,1,0-15.14,7.57,7.57,0,1,1,0,15.14" class="cls-2"/><rect height="59.29" width="207.5" y="143.78" class="cls-2"/><path d="M40.47,192.76H33a4.24,4.24,0,0,1-2.32-.47,1.59,1.59,0,0,1-.7-1.39V174.29h3.76a7.69,7.69,0,0,1,5.69,2.08q2.09,2.07,2.25,6.87H44V163.9H41.72q-.16,4.26-2.22,6.32a7.23,7.23,0,0,1-5.37,2.06H30V157.4a2.11,2.11,0,0,1,.58-1.64,2.45,2.45,0,0,1,1.72-.54h9.42a10.25,10.25,0,0,1,7.32,2.65c1.87,1.78,3.24,4.88,4.11,9.33h2.18l-.91-14.1H16.33v2.12h3.93a3.45,3.45,0,0,1,2.15.54,2,2,0,0,1,.68,1.64v33.1a2,2,0,0,1-.78,1.68,4.66,4.66,0,0,1-2.7.58H16.33v2.12H56l.81-15.57H54.44q-1.86,13.45-14,13.45" class="cls-3"/><path d="M92.35,186.1,78,153.1H62v2.12h4.1a5.49,5.49,0,0,1,2.8.5,1.73,1.73,0,0,1,.75,1.56V186.1c0,2.39-.54,4.05-1.6,5s-3.07,1.5-6.05,1.67v2.11H80.11v-2.11a13.46,13.46,0,0,1-4.8-.89,5.25,5.25,0,0,1-2.23-2.07,8.24,8.24,0,0,1-.78-4.05V155.39l17.13,39.49h2.19l15.9-39.66V190.7a1.74,1.74,0,0,1-.85,1.48,4.66,4.66,0,0,1-2.62.59H99.94v2.11h22v-2.11h-3.67a6.1,6.1,0,0,1-3-.54,1.69,1.69,0,0,1-.88-1.53V157.63a2.17,2.17,0,0,1,.73-1.87,5.16,5.16,0,0,1,2.84-.54h4V153.1H105.58Z" class="cls-3"/><path d="M157,173.16q-3.24-1.56-11.27-3.07a37.8,37.8,0,0,1-7.79-2,7.42,7.42,0,0,1-3.1-2.45,6.14,6.14,0,0,1-1-3.53,6.83,6.83,0,0,1,2.73-5.46,10.77,10.77,0,0,1,7-2.23,13.94,13.94,0,0,1,9.09,3.22c2.63,2.15,4.63,5.56,6,10.23h2.15l-.2-15.23h-2.37l-2.93,3.65a21,21,0,0,0-5.66-3.11,17.72,17.72,0,0,0-5.75-.93,15.24,15.24,0,0,0-10.36,3.51,11.43,11.43,0,0,0-4.05,9,9.44,9.44,0,0,0,4.07,8.17q2.89,2,10.85,3.67a62,62,0,0,1,9.73,2.5,8.38,8.38,0,0,1,3.61,2.54,5.66,5.66,0,0,1,1.13,3.52,7.5,7.5,0,0,1-3,6,12.06,12.06,0,0,1-7.86,2.47,16.52,16.52,0,0,1-10.7-3.87,17.7,17.7,0,0,1-6.11-10.57h-2.34v16.19h2.34l3.67-3.89a20.85,20.85,0,0,0,12.95,4.18q6.92,0,11.3-3.72a11.79,11.79,0,0,0,4.37-9.36,9.57,9.57,0,0,0-1.6-5.53,11.71,11.71,0,0,0-4.82-3.91" class="cls-3"/><path d="M184.89,155.77a5.9,5.9,0,0,1,3.2-.55h3.81V153.1H169.72v2.12h3.78a6.15,6.15,0,0,1,3.34.65c.39.28.59,1,.59,2.23v31.64a3.34,3.34,0,0,1-.65,2.46,4.79,4.79,0,0,1-2.86.56h-4.2v2.12H191.9v-2.12h-4.26a4.58,4.58,0,0,1-2.83-.64c-.39-.33-.58-1.12-.58-2.38V158.1a3,3,0,0,1,.66-2.33" class="cls-3"/><polygon points="190.34 130.81 180.88 140.28 171.4 130.81 180.88 121.34 190.34 130.81" class="cls-4"/><path d="M36.85,130.32s3.07.78,1.91,6.34c-.19,1,.19,6.35,4.62,5.38s3.46-2.29,2.49-7.69a5.7,5.7,0,0,1,0-6.72c0-.77,9-25.19,6.17-31.15.17.37-1-6.14,4.81-1-.2.39,1,.39.56,12.5,0,.19-.56,5.77,1.73,7.7,0,.57-.56,12.7-.56,12.7s-1,8.83,4.4,6.34c-.18,0-.18,7.88,3.09,7.1.39.39,5,1,2.88-8.84a114,114,0,0,1,2.7-11.73c.39-.38,5-16.74,3.64-27.7.21.4,4.44-7.11,4.62-11.72.19,0,2.71-.19,2.71-.19S85.88,84,89.91,97.05c0-.38,2.89,11,2.11,15.78,0,.76,3.65,7.5,3.65,11.53s.79,11,.2,12.67c.39.4,3.07,3.29,2.89,4.65-.19.36,2.89,5.57,5.19,1.33.2-.38,0-5-.76-6.35-.2.18-1.16-3,1.14-6.71.76-1.35,4.63-11.94,2.12-22.13a14.29,14.29,0,0,1,.38-8.45c1.74-4.82,6.74-18.85,4.62-25.79,0,.4-1.36-1.92-.76-9.21.19.19,6.54-2.5,8.25,6.15,0,.19.2,12.7-1.71,17.7,0,.57-1.54,14.6,1.34,21.71.37.42,5,14,5,14s0,10.58,2.69,11.16c.77-.58,2.3,2.1,3.47-8.48-.2-.36,2.3-4.41,0-8.27.39,0-3.07-18.65-3.07-18.65l4.79-10,1.55-.19a311.18,311.18,0,0,1,.19,42.88c.39.77,1.73,3.27,1.73,3.27l1.36,2.31H144l-3.66-5.78s-1-6.72,1.53-11.53c.38-.38,2.7-19.62,2.32-27.13v-15s1.72-6.36,3.83-6.93c1.17-.18,4.44,5.39,4.44,5.39l7.69-4-1.74-5.58s2.31-2.49,7.3-2.11c.2,0-3.45-21.92-17.5-36.14-.19.19,0-4.44,0-4.44s-9.41-3.45-12.49-4c-.39-.17-.39-5.76-.39-5.76s4.82-9.23,3.27-11.33c-1-1.56-6.92-6.93-16.72-.59.58.19-4.61,4.61.58,9,.18.38,1.14,1.73,1.14,1.73l-.18,6.91s-12.69,6.55-14,9c-.38.77-8.86-2.29-8.86-2.29V24.17s2.71-1,1.17-4c0-.58.19-9.62-2.31-11.72-.58.18-4.43-3.1-8.84,1.33-.78.38-6.73,9.62-6.73,9.62S82.22,24,86.07,25.7c.2,0,.4,2.13.77,3.09,0,.19-1.54,2.49-6.15,1.92l-3.85-.2-.2-1.33s-5-.2-6-2.89c0-.78-.17-3.84-.17-3.84l-.58-3.28,1.16-2.29S73,7.07,66.83,5.71c-.37,0-7.11-.77-8.66,4.62a14.3,14.3,0,0,0,1.94,9.23c-.2-.19-.76,1.14-1.53,1.73s-4,7.5-7.5,7.5c-.19,0-4.62,1.72-5.21-2.7.39-.18.39-4,.39-4s4.42-7.12,3.47-10c0-.39.75-5.38-7.12-5.19.2,0-6.54-.59-7.12,7.11.2.39-.38,3.28,1.93,6.16a33.56,33.56,0,0,1-.57,4.43s-5,3.07-8.48,3.83c-.17,0-10.38,3.86-11.52,16.54-.2,0-5.39,19.23-5.2,26.72.19,1.17,1.92,3.47,3.47,6.93-.21-.57,0,2.9,0,2.9L13,83.4l.38,24,5.38.19L19,85.9a9.73,9.73,0,0,0,1.15-4.62,19,19,0,0,1,.39-4.61l.76-7.7s3.84,3.26,4,5.19c-.39,2.13,0,31.16,4.8,43.28-.39,0,2.12,6.35,0,11.16.21,1.16-1.15,3.46,1,4.61.21,0,2.71,1.54,5.79-2.89" class="cls-1"/></g></g></svg>